<svg id="Layer_1" enable-background="new 0 0 512 512" height="512" viewBox="0 0 512 512" width="512" xmlns="http://www.w3.org/2000/svg"><g><path d="m504.499 107.98v192.75c0 17.64-14.3 31.93-31.95 31.93h-433.1c-17.64 0-31.95-14.29-31.95-31.93v-192.75c0-7.38 2.53-14.27 6.85-19.75 4.32-5.49 10.43-9.56 17.6-11.29 41.71-10.06 83.93-17.27 126.37-21.64l7.39-35.31c1.52-7.28 7.94-12.49 15.38-12.49h149.82c7.44 0 13.86 5.21 15.38 12.49l7.39 35.31c21.22 2.18 42.38 5.08 63.46 8.69 21.07 3.6 42.06 7.92 62.91 12.95 14.34 3.46 24.45 16.29 24.45 31.04z" fill="#e5f5f9"/><path d="m504.499 107.98v192.75c0 17.64-14.3 31.93-31.95 31.93h-36c17.65 0 31.95-14.29 31.95-31.93v-168.75c0-14.75-10.11-27.58-24.45-31.04-41.71-10.06-83.93-17.27-126.37-21.64l-7.39-59.31c-1.52-7.28-7.94-12.49-15.38-12.49h36c7.44 0 13.86 5.21 15.38 12.49l7.39 35.31c21.22 2.18 42.38 5.08 63.46 8.69 21.07 3.6 42.06 7.92 62.91 12.95 14.34 3.46 24.45 16.29 24.45 31.04z" fill="#bfd5dd"/><path d="m358.419 188.57c0 56.53-45.85 102.35-102.42 102.35-6.39 0-12.64-.58-18.7-1.71-47.63-8.77-83.72-50.49-83.72-100.64 0-50.14 36.09-91.86 83.72-100.63 6.06-1.13 12.31-1.71 18.7-1.71 56.57 0 102.42 45.82 102.42 102.34z" fill="#5cd5ff"/><path d="m358.419 188.57c0 56.53-45.85 102.35-102.42 102.35-6.39 0-12.64-.58-18.7-1.71 47.63-8.78 83.71-50.5 83.71-100.64s-36.08-91.85-83.71-100.63c6.06-1.13 12.31-1.71 18.7-1.71 56.57 0 102.42 45.82 102.42 102.34z" fill="#5ab5ff"/><path d="m306.079 188.57c0 27.64-22.42 50.04-50.08 50.04-6.23 0-12.2-1.14-17.7-3.22-18.92-7.14-32.37-25.41-32.37-46.82 0-21.4 13.44-39.66 32.35-46.81 5.51-2.09 11.48-3.23 17.72-3.23 27.66 0 50.08 22.41 50.08 50.04z" fill="#51697a"/><path d="m306.079 188.57c0 27.64-22.42 50.04-50.08 50.04-6.23 0-12.2-1.14-17.7-3.22 18.92-7.15 32.37-25.41 32.37-46.82s-13.46-39.68-32.39-46.81c5.51-2.09 11.48-3.23 17.72-3.23 27.66 0 50.08 22.41 50.08 50.04z" fill="#354c5b"/><path d="m7.5 130.634h86.973v135.865h-86.973z" fill="#bfd5dd"/><path d="m408.459 332.66v156.93c0 8.23-6.68 14.91-14.92 14.91h-275.08c-8.24 0-14.92-6.68-14.92-14.91v-156.93z" fill="#5cd5ff"/><path d="m408.459 332.66v156.93c0 8.23-6.68 14.91-14.92 14.91h-24.72v-171.84z" fill="#5ab5ff"/><path d="m408.459 480.76v8.83c0 8.23-6.68 14.91-14.92 14.91h-275.08c-8.24 0-14.92-6.68-14.92-14.91v-44.83h39.14l65.63-65.59 73.01 72.96 49.25-49.21 38.25 38.23z" fill="#91ff31"/><path d="m408.459 480.76v8.83c0 8.23-6.68 14.91-14.92 14.91h-24.72v-63.35z" fill="#00ea80"/><path d="m44.8 73.866v-37.221l52.248-9.993v36.832z" fill="#51697a"/><path d="m467.2 73.866v-37.221l-52.248-9.993v36.832z" fill="#51697a"/><ellipse cx="430.006" cy="158.424" fill="#bfd5dd" rx="26.564" ry="26.545"/></g><g><path d="m256 78.728c-60.61 0-109.92 49.277-109.92 109.847 0 60.569 49.31 109.846 109.92 109.846s109.92-49.277 109.92-109.846c0-60.571-49.31-109.847-109.92-109.847zm0 204.692c-52.339 0-94.92-42.548-94.92-94.846 0-52.299 42.581-94.847 94.92-94.847s94.92 42.548 94.92 94.847-42.581 94.846-94.92 94.846z"/><path d="m481.807 69.651c-2.365-.571-4.735-1.131-7.107-1.684v-31.322c0-3.599-2.556-6.69-6.091-7.367l-52.248-9.993c-2.196-.418-4.465.162-6.188 1.587s-2.721 3.544-2.721 5.78v28.143c-15.818-2.521-31.688-4.653-47.551-6.376l-6.269-29.967c-2.237-10.692-11.793-18.452-22.721-18.452h-149.822c-10.929 0-20.485 7.76-22.722 18.453l-6.269 29.966c-15.863 1.723-31.734 3.855-47.551 6.376v-28.143c0-2.236-.998-4.355-2.721-5.78-1.724-1.425-3.994-2.005-6.188-1.587l-52.248 9.993c-3.535.676-6.091 3.768-6.091 7.367v31.322c-2.372.553-4.741 1.113-7.106 1.684-17.777 4.288-30.193 20.049-30.193 38.327v22.657 135.865 34.234c0 21.741 17.698 39.428 39.451 39.428h56.589v149.428c0 12.357 10.059 22.411 22.422 22.411h29.118c4.142 0 7.5-3.358 7.5-7.5s-3.358-7.5-7.5-7.5h-29.118c-4.092 0-7.422-3.325-7.422-7.411v-37.333h31.635c1.988 0 3.895-.79 5.301-2.195l60.333-60.29 67.711 67.663c2.928 2.927 7.675 2.927 10.603 0l43.941-43.91 70.394 70.343v5.722c0 4.086-3.329 7.411-7.421 7.411h-211.28c-4.142 0-7.5 3.358-7.5 7.5s3.358 7.5 7.5 7.5h211.28c12.363 0 22.421-10.054 22.421-22.411v-149.429h56.589c21.753 0 39.451-17.688 39.451-39.428v-192.755c.002-18.278-12.414-34.039-30.191-38.327zm-59.355-33.929 37.248 7.124v21.75c-12.351-2.672-24.777-5.102-37.248-7.291zm-370.152 7.124 37.248-7.124v21.583c-12.471 2.189-24.898 4.62-37.248 7.291zm444.7 257.887c0 13.47-10.969 24.428-24.451 24.428h-103.387c-4.142 0-7.5 3.358-7.5 7.5s3.358 7.5 7.5 7.5h31.798v122.5l-65.093-65.046c-2.929-2.927-7.675-2.927-10.603 0l-43.941 43.91-67.711-67.663c-2.929-2.927-7.674-2.927-10.603 0l-63.438 63.393h-28.53v-97.094h223.025c4.142 0 7.5-3.358 7.5-7.5s-3.358-7.5-7.5-7.5h-294.615c-13.482 0-24.451-10.958-24.451-24.428v-26.734h79.473c4.142 0 7.5-3.358 7.5-7.5v-25.508c0-4.142-3.358-7.5-7.5-7.5s-7.5 3.358-7.5 7.5v18.008h-71.973v-120.865h71.973v67.755c0 4.142 3.358 7.5 7.5 7.5s7.5-3.358 7.5-7.5v-75.255c0-4.142-3.358-7.5-7.5-7.5h-79.473v-15.157c0-11.323 7.694-21.087 18.711-23.746 41.115-9.92 83.298-17.143 125.377-21.469 3.247-.333 5.906-2.729 6.574-5.925l7.388-35.314c.791-3.78 4.171-6.524 8.039-6.524h149.821c3.867 0 7.248 2.744 8.039 6.524l7.387 35.314c.668 3.195 3.327 5.591 6.574 5.925 42.079 4.325 84.262 11.548 125.378 21.469 11.018 2.659 18.712 12.424 18.712 23.747z"/><path d="m200.771 50.192h110.459c4.142 0 7.5-3.358 7.5-7.5s-3.358-7.5-7.5-7.5h-110.459c-4.142 0-7.5 3.358-7.5 7.5s3.357 7.5 7.5 7.5z"/><path d="m256 131.035c-31.748 0-57.576 25.812-57.576 57.54 0 31.727 25.828 57.539 57.576 57.539 16.535 0 32.29-7.118 43.224-19.528 2.738-3.108 2.438-7.847-.669-10.585s-7.846-2.439-10.585.669c-8.088 9.18-19.74 14.444-31.969 14.444-23.476 0-42.576-19.083-42.576-42.539 0-23.457 19.1-42.54 42.576-42.54s42.575 19.083 42.575 42.54c0 4.142 3.358 7.5 7.5 7.5s7.5-3.358 7.5-7.5c-.001-31.728-25.829-57.54-57.576-57.54z"/><path d="m430.006 124.379c-18.783 0-34.064 15.272-34.064 34.045 0 18.772 15.281 34.044 34.064 34.044s34.063-15.272 34.063-34.044-15.28-34.045-34.063-34.045zm0 53.09c-10.512 0-19.064-8.543-19.064-19.044s8.552-19.045 19.064-19.045 19.063 8.543 19.063 19.045c0 10.5-8.551 19.044-19.063 19.044z"/><path d="m430.006 221.223c-4.142 0-7.5 3.358-7.5 7.5v37.776c0 4.142 3.358 7.5 7.5 7.5s7.5-3.358 7.5-7.5v-37.776c0-4.142-3.358-7.5-7.5-7.5z"/></g></svg>