<svg height="512pt" viewBox="-72 0 512 512" width="512pt" xmlns="http://www.w3.org/2000/svg"><path d="m344.199219 66.398438h-54.800781c-.398438 7.800781-7 14-14.796876 14h-139.800781c-7.800781 0-14.199219-6.199219-14.800781-14h-54.601562c-10.398438 0-18.597657 8.402343-18.597657 18.601562v403.199219c0 10.402343 8.398438 18.601562 18.597657 18.601562h279c10.402343 0 18.601562-8.402343 18.601562-18.601562v-403.199219c0-10.199219-8.398438-18.601562-18.800781-18.601562zm0 0" fill="#b26e3b"/><path d="m323.199219 106.800781h-205.199219l-42.800781 43v319.597657c0 6.203124 5 11.203124 11.199219 11.203124h237c6.203124 0 11.203124-5 11.203124-11.203124v-351.398438c-.203124-6.199219-5.203124-11.199219-11.402343-11.199219zm0 0" fill="#e9e9ea"/><path d="m142.398438 307c-14.597657 0-26.398438-11.800781-26.398438-26.398438 0-14.601562 11.800781-26.402343 26.398438-26.402343 14.601562 0 26.402343 11.800781 26.402343 26.402343 0 14.597657-11.800781 26.398438-26.402343 26.398438zm0 0" fill="#6dcc6d"/><path d="m142.398438 376.199219c-14.597657 0-26.398438-11.800781-26.398438-26.398438 0-14.601562 11.800781-26.402343 26.398438-26.402343 14.601562 0 26.402343 11.800781 26.402343 26.402343 0 14.597657-11.800781 26.398438-26.402343 26.398438zm0 0" fill="#6dcc6d"/><path d="m142.398438 445.601562c-14.597657 0-26.398438-11.800781-26.398438-26.402343 0-14.597657 11.800781-26.398438 26.398438-26.398438 14.601562 0 26.402343 11.800781 26.402343 26.398438 0 14.402343-11.800781 26.199219-26.402343 26.402343zm0 0" fill="#6dcc6d"/><path d="m206 141.601562c-.398438-.800781-1.199219-1-2-.601562-.199219.199219-.398438.398438-.601562.601562-18.597657 37-55 55-55 55v30h112.601562v-30c.199219 0-36.199219-18-55-55zm0 0" fill="#ffae2c"/><path d="m205.199219 177.199219c-7 23.402343-16.597657 39.199219-26 49.601562h52.199219c-9.597657-10.601562-19.398438-26.199219-26.199219-49.601562zm0 0" fill="#fc9322"/><path d="m75.199219 149.800781h31.601562c6.199219 0 11.199219-5 11.199219-11.199219v-31.800781zm0 0" fill="#55acd5"/><path d="m135 50.800781h139.800781c8.199219 0 14.800781 6.597657 14.800781 14.800781 0 8.199219-6.601562 14.796876-14.800781 14.796876h-139.800781c-8.199219 0-14.800781-6.597657-14.800781-14.796876 0-8.203124 6.601562-14.800781 14.800781-14.800781zm0 0" fill="#e9e9ea"/><path d="m308.398438 8.601562h-3.597657v-3.601562c0-2.800781-2.199219-5-5-5s-5 2.199219-5 5v3.601562h-3.601562c-2.800781 0-5 2.199219-5 5 0 2.796876 2.199219 5 5 5h3.601562v3.597657c0 2.800781 2.199219 5 5 5s5-2.199219 5-5v-3.597657h3.597657c2.800781 0 5-2.203124 5-5 0-2.800781-2.199219-5-5-5zm0 0" fill="#ea4647"/><path d="m26.398438 148c0-.398438-.199219-.601562-.199219-1-.199219-.199219-.199219-.601562-.398438-.800781s-.402343-.597657-.601562-.800781c-2-1.796876-5-1.796876-7 0-.199219.203124-.398438.402343-.597657.800781-.402343.601562-.601562 1.199219-.800781 1.800781s-.199219 1.398438 0 2c0 .398438.199219.601562.199219 1 .199219.398438.199219.601562.398438.800781.203124.199219.402343.597657.601562.800781 2 2 5 2 7 0 .199219-.203124.398438-.402343.601562-.800781.199219-.199219.398438-.601562.398438-.800781.199219-.199219.199219-.601562.199219-1 .402343-.800781.402343-1.398438.199219-2zm0 0" fill="#6dcc6d"/><path d="m344.398438 36c0-.398438-.199219-.601562-.199219-1-.199219-.199219-.199219-.601562-.398438-.800781s-.402343-.597657-.601562-.800781c-2-1.796876-5-1.796876-7 0-.199219.203124-.398438.402343-.597657.800781-.402343.601562-.601562 1.199219-.800781 1.800781s-.199219 1.398438 0 2c0 .398438.199219.601562.199219 1 .199219.398438.199219.601562.398438.800781.203124.199219.402343.597657.601562.800781 2 2 5 2 7 0 .199219-.203124.398438-.402343.601562-.800781.199219-.199219.398438-.601562.398438-.800781.199219-.199219.199219-.601562.199219-1 .402343-.800781.402343-1.398438.199219-2zm0 0" fill="#ffcd29"/><path d="m20.601562 202.199219c-5-1-9-5-10-10 0-.199219-.203124-.199219-.203124-.199219s-.199219 0-.199219.199219c-1 5-5 9-10 10-.199219 0-.199219.199219-.199219.199219 0 .203124 0 .203124.199219.203124 5 1 9 5 10 10 0 .199219.199219.199219.199219.199219s.203124 0 .203124-.199219c1-5 5-9 10-10 .199219 0 .199219 0 0-.402343.199219.199219.199219 0 0 0zm0 0" fill="#55acd5"/><path d="m274.601562 85.398438h-139.800781c-11 0-19.800781-8.796876-19.800781-19.796876s8.800781-19.800781 19.800781-19.800781h139.800781c11 0 19.796876 8.800781 19.796876 19.800781 0 10.796876-8.796876 19.796876-19.796876 19.796876zm-139.800781-29.597657c-5.402343 0-9.800781 4.398438-9.800781 9.800781 0 5.398438 4.398438 9.796876 9.800781 9.796876h139.800781c5.398438 0 9.796876-4.398438 9.796876-9.796876 0-5.402343-4.398438-9.800781-9.796876-9.800781zm0 0"/><path d="m344.199219 512h-278.800781c-13 0-23.597657-10.601562-23.597657-23.601562v-403.398438c0-13 10.597657-23.601562 23.597657-23.601562h54.800781c2.601562 0 4.800781 2 5 4.800781.402343 5.199219 4.601562 9.199219 9.800781 9.199219h139.800781c5.199219 0 9.398438-4 9.800781-9.199219.199219-2.597657 2.398438-4.800781 5-4.800781h54.796876c13 0 23.601562 10.601562 23.601562 23.601562v403.199219c0 13.199219-10.601562 23.800781-23.800781 23.800781zm-278.800781-440.601562c-7.597657 0-13.597657 6.203124-13.597657 13.601562v403.199219c0 7.601562 6.199219 13.601562 13.597657 13.601562h279c7.601562 0 13.601562-6.199219 13.601562-13.601562v-403.199219c0-7.601562-6.199219-13.601562-13.601562-13.601562h-50.796876c-2.601562 8.203124-10.203124 14-18.800781 14h-139.800781c-8.601562 0-16.398438-5.597657-19-14zm0 0"/><path d="m219.601562 55.800781h-29.601562c-2.800781 0-5-2.199219-5-5v-10.800781c0-11 8.800781-19.800781 19.800781-19.800781s19.800781 8.800781 19.800781 19.800781v10.800781c0 2.597657-2.203124 5-5 5zm-24.601562-10h19.601562v-5.800781c0-5.398438-4.402343-9.800781-9.800781-9.800781-5.402343 0-9.800781 4.402343-9.800781 9.800781zm0 0"/><path d="m235 111.199219h-60.601562c-16.398438 0-29.796876-13.398438-29.796876-29.800781 0-.398438 0-.597657 0-1v-.199219c.199219-2.597657 2.398438-4.800781 5-4.800781h110.199219c2.597657 0 4.800781 2.203124 5 4.800781v.199219 1c.199219 16.402343-13.199219 29.800781-29.800781 29.800781zm-80-25.800781c1.800781 9.203124 10 16 19.398438 16h60.601562c9.398438 0 17.601562-6.597657 19.398438-16zm0 0"/><path d="m323.199219 485.398438h-236.800781c-9 0-16.199219-7.199219-16.199219-16.199219v-319.398438c0-1.402343.601562-2.601562 1.402343-3.601562l42.796876-42.800781c1-1 2.203124-1.398438 3.601562-1.398438h205.199219c9 0 16.199219 7.199219 16.199219 16.199219v351.199219c0 8.800781-7.199219 16-16.199219 16zm-243-333.597657v317.597657c0 3.402343 2.800781 6.203124 6.199219 6.203124h237c3.402343 0 6.203124-2.800781 6.203124-6.203124v-351.398438c0-3.398438-2.800781-6.199219-6.203124-6.199219h-203.199219zm0 0"/><path d="m106.800781 154.800781h-31.601562c-2.800781 0-5-2.199219-5-5 0-1.402343.601562-2.601562 1.402343-3.601562l42.796876-42.800781c2-2 5.203124-2 7 0 1 1 1.402343 2.203124 1.402343 3.601562v31.800781c.199219 8.597657-7 16-16 16zm-19.601562-10h19.601562c3.398438 0 6.199219-2.800781 6.199219-6.199219v-19.601562zm0 0"/><path d="m261.199219 231.601562h-112.800781c-2.796876 0-5-2.203124-5-5v-30c0-1.800781 1-3.601562 2.800781-4.402343.402343-.199219 35-17.800781 52.800781-52.800781 1.601562-3.199219 5.398438-4.398438 8.601562-2.796876 1.199219.597657 2.199219 1.597657 2.796876 2.796876 17.800781 35 52.402343 52.601562 52.800781 52.800781 1.800781.800781 2.800781 2.601562 2.800781 4.402343v30c.199219 2.796876-2 5-4.800781 5zm-107.800781-10h102.601562v-22c-8.601562-4.800781-34.601562-21.203124-51.398438-49.800781-16.800781 28.800781-42.800781 45-51.402343 49.800781zm48.203124-77.601562"/><path d="m231.199219 231.601562h-52.199219c-2.800781 0-5-2.203124-5-5 0-1.203124.398438-2.402343 1.199219-3.402343 10.800781-12 19.199219-28 25-47.597657.601562-2.203124 2.601562-3.601562 4.800781-3.601562s4.199219 1.398438 4.800781 3.601562c5.800781 19.597657 14.199219 35.597657 25 47.597657 1.800781 2 1.597657 5.199219-.402343 7-.796876 1-2 1.402343-3.199219 1.402343zm-41.597657-10h31.199219c-6.402343-9-11.601562-18.800781-15.601562-29-4 10.398438-9.199219 20-15.597657 29zm0 0"/><g fill="#231f20"><path d="m247.800781 296.199219h-59.199219c-2.800781 0-5-2.199219-5-5s2.199219-5 5-5h59.199219c2.800781 0 5 2.199219 5 5s-2.199219 5-5 5zm0 0"/><path d="m295.199219 275h-106.597657c-2.800781 0-5-2.199219-5-5s2.199219-5 5-5h106.597657c2.800781 0 5 2.199219 5 5s-2.398438 5-5 5zm0 0"/><path d="m142.398438 312c-17.398438 0-31.398438-14-31.398438-31.398438 0-17.402343 14-31.402343 31.398438-31.402343 17.402343 0 31.402343 14 31.402343 31.402343 0 17.199219-14.199219 31.398438-31.402343 31.398438zm0-52.800781c-11.796876 0-21.398438 9.601562-21.398438 21.402343 0 11.796876 9.601562 21.398438 21.398438 21.398438 11.800781 0 21.402343-9.601562 21.402343-21.398438 0-11.800781-9.601562-21.402343-21.402343-21.402343zm0 0"/><path d="m247.800781 365.398438h-59.199219c-2.800781 0-5-2.199219-5-5 0-2.796876 2.199219-5 5-5h59.199219c2.800781 0 5 2.203124 5 5 0 2.800781-2.199219 5-5 5zm0 0"/><path d="m295.199219 344.199219h-106.597657c-2.800781 0-5-2.199219-5-5s2.199219-5 5-5h106.597657c2.800781 0 5 2.199219 5 5s-2.398438 5-5 5zm0 0"/><path d="m142.398438 381.199219c-17.398438 0-31.398438-14-31.398438-31.398438 0-17.402343 14-31.402343 31.398438-31.402343 17.402343 0 31.402343 14 31.402343 31.402343 0 17.398438-14.199219 31.398438-31.402343 31.398438zm0-52.800781c-11.796876 0-21.398438 9.601562-21.398438 21.402343s9.601562 21.398438 21.398438 21.398438c11.800781 0 21.402343-9.597657 21.402343-21.398438s-9.601562-21.402343-21.402343-21.402343zm0 0"/><path d="m247.800781 434.800781h-59.199219c-2.800781 0-5-2.199219-5-5s2.199219-5 5-5h59.199219c2.800781 0 5 2.199219 5 5s-2.199219 5-5 5zm0 0"/><path d="m295.199219 413.398438h-106.597657c-2.800781 0-5-2.199219-5-5 0-2.796876 2.199219-5 5-5h106.597657c2.800781 0 5 2.203124 5 5 0 2.800781-2.398438 5-5 5zm0 0"/><path d="m142.398438 450.398438c-17.398438 0-31.398438-14-31.398438-31.398438s14-31.398438 31.398438-31.398438c17.402343 0 31.402343 14 31.402343 31.398438s-14.199219 31.398438-31.402343 31.398438zm0-52.597657c-11.796876 0-21.398438 9.597657-21.398438 21.398438s9.601562 21.402343 21.398438 21.402343c11.800781 0 21.402343-9.601562 21.402343-21.402343s-9.601562-21.398438-21.402343-21.398438zm0 0"/><path d="m139.398438 295.199219c-1.398438 0-2.796876-.597657-3.597657-1.597657l-9-9.800781c-1.800781-2-1.800781-5.199219.398438-7s5.199219-1.800781 7 .398438l5.402343 6 11.398438-11.398438c2-2 5-2 7-.199219 2 1.796876 2 5 .199219 7 0 0 0 0-.199219.199219l-15 15c-1 1-2.199219 1.398438-3.601562 1.398438zm0 0"/><path d="m139.398438 364.601562c-1.398438 0-2.796876-.601562-3.597657-1.601562l-9-9.800781c-1.800781-2-1.800781-5.199219.398438-7 2-1.800781 5.199219-1.800781 7 .402343l5.402343 6 11.398438-11.402343c2-2 5-2 7-.199219s2 5 .199219 7c0 0 0 0-.199219.199219l-15 15c-1 .800781-2.199219 1.402343-3.601562 1.402343zm0 0"/><path d="m139.398438 433.800781c-1.398438 0-2.796876-.601562-3.597657-1.601562l-9-9.800781c-1.800781-2-1.800781-5.199219.398438-7 2-1.796876 5.199219-1.796876 7 .402343l5.402343 6 11.398438-11.402343c2-2 5-2 7-.199219s2 5 .199219 7c0 0 0 0-.199219.199219l-15 15c-1 1-2.199219 1.402343-3.601562 1.402343zm0 0"/></g></svg>