<svg height="511pt" viewBox="0 -17 511.8 511" width="511pt" xmlns="http://www.w3.org/2000/svg"><path d="m499.800781 37.398438c-4.800781-4-11-5.597657-17-4.398438l-150.402343 28-149.597657-28c-2.601562-.398438-5-.398438-7.601562 0l-153.199219 28.800781c-9.800781 1.800781-16.800781 10.199219-16.800781 20.199219v346.800781c0 11.398438 9.199219 20.597657 20.601562 20.597657 1.199219 0 2.597657-.199219 3.800781-.398438l149.398438-28 149.601562 28c2.597657.398438 5 .398438 7.597657 0l154.199219-28.800781c9.800781-1.800781 16.800781-10.398438 16.800781-20.199219v-346.800781c0-6-2.800781-11.800781-7.398438-15.800781zm0 0" fill="#e9e9ea"/><path d="m332.398438 61-149.597657-28c-1.199219-.199219-2.601562-.398438-3.800781-.398438v388.398438l149.601562 28c1.199219.199219 2.597657.398438 3.796876.398438zm0 0" fill="#bbbbbf"/><path d="m486.601562 400-154.203124 28.800781v-346.800781l154.203124-28.800781zm0 0" fill="#c17c4d"/><path d="m332.398438 428.800781-153.398438-28.800781v-346.800781l153.398438 28.800781zm0 0" fill="#b26e3b"/><path d="m179 400-153.199219 28.800781v-346.800781l153.199219-28.800781zm0 0" fill="#c17c4d"/><path d="m332.398438 337.800781c17.601562 15.398438 41.601562 28.398438 78.402343 28.398438 20.800781 0 45.597657-4.199219 75.597657-14.199219v-25.199219c-95 34.800781-128.796876 5.398438-154.199219-22.800781v33.800781zm0 0" fill="#898989"/><path d="m179 169c-8-3.800781-16.398438-6.601562-25-8.601562-30.601562-7.398438-53-27.199219-66.398438-59-4-9.398438-7-19.398438-8.800781-29.398438l-23.601562 4.398438c2.199219 11.402343 5.601562 22.800781 10 33.601562 16.199219 39 45 64.601562 83.199219 73.601562 11 2.398438 21.402343 6.796876 30.601562 13zm0 0" fill="#898989"/><path d="m327.601562 298.199219c-12-13.597657-23.402343-26.597657-39.800781-30-15.199219-3.199219-25.800781-8-34-14l-5.402343 6.601562-21.398438-26c-6-7-8-16.601562-5.398438-25.601562-8.800781-14.800781-20.402343-29.800781-42.402343-40.398438v27.597657c13.402343 9.402343 20 21.800781 27.601562 35.203124 6 11 12.597657 22.796876 22.800781 33.199219 4 17 5 48.597657-10.601562 105.398438-3.398438 12-7.800781 23.601562-13.601562 34.601562l24.402343 4.597657c5-10.597657 9.199219-21.597657 12.199219-32.796876 10.199219-37.203124 14.800781-68.601562 13.800781-93.601562 8.597657 3.800781 17.597657 6.800781 27 8.601562 8.800781 1.796876 17 11.398438 26.800781 22.398438 7.199219 8.398438 14.796876 16.199219 23 23.601562v-34c-1.800781-1.601562-3.402343-3.601562-5-5.402343zm0 0" fill="#6d6c6b"/><path d="m193.199219 290c-5 .199219-9.800781-.800781-14.199219-3.199219v50.597657c34-10.398438 34.199219-47.398438 14.199219-47.398438zm0 0" fill="#6dcc6d"/><path d="m161.199219 260c-24-14-26 18-54 8s20-64-34-72c-21.800781-3.199219-37-16.601562-47.398438-31.199219v264l124.398438-23.402343c2.199219-9.597657 2.800781-19.597657-1-27.398438-10-20-4-30 29.800781-40.398438v-50.601562c-11.601562-6.800781-9.398438-22-17.800781-27zm0 0" fill="#88e288"/><path d="m486.601562 53.199219-154.203124 28.800781v122c14.402343-9.398438 26.402343-18.800781 46.800781-8 30 16-4 60 48 60 26.800781 0 32.800781 40 59.402343 29.398438zm0 0" fill="#88e288"/><path d="m179 122.601562c13.601562 13.597657 19 35.398438 60.199219 35.398438 40 0 20.199219 54 50 58 19.402343 2.601562 32-4.601562 43.199219-12v-122l-153.398438-28.800781zm0 0" fill="#6dcc6d"/><path d="m151.199219 112c13.800781 0 21.601562 4.601562 27.800781 10.601562v-69.402343l-62.800781 11.800781c-.199219 17.601562 4.199219 47 35 47zm0 0" fill="#88e288"/><path d="m248.199219 189.199219c-15.398438 0-27.800781 12.402343-27.800781 27.800781 0 6.398438 2.203124 12.800781 6.402343 17.800781l21.398438 26 21.402343-26c9.796876-11.800781 8.199219-29.402343-3.800781-39.199219-4.800781-4.203124-11.199219-6.402343-17.601562-6.402343zm0 0" fill="#ea4647"/><path d="m259.199219 217c0 6.074219-4.925781 11-11 11s-11-4.925781-11-11 4.925781-11 11-11 11 4.925781 11 11zm0 0" fill="#b26e3b"/><path d="m89.800781 328 8-3.199219-19.800781-31.800781-19.601562 31.800781 7.800781 3.199219-11.800781 19h47.402343zm0 0" fill="#6dcc6d"/><path d="m387.800781 134 8-3.199219-19.800781-31.800781-19.601562 31.800781 7.800781 3.199219-11.800781 19h47.402343zm0 0" fill="#6dcc6d"/><path d="m421.199219 102c42.402343 8.800781 22.402343 56.199219 65.402343 62.601562v-111.402343l-104 19.402343c6.796876 11.796876 18.796876 25.199219 38.597657 29.398438zm0 0" fill="#55acd5"/><path d="m341.800781 9h-3.601562v-3.601562c0-2.796876-2.199219-5-5-5s-5 2.203124-5 5v3.601562h-3.597657c-2.800781 0-5 2.199219-5 5s2.199219 5 5 5h3.597657v3.601562c0 2.796876 2.199219 5 5 5s5-2.203124 5-5v-3.601562h3.601562c2.800781 0 5-2.199219 5-5s-2.199219-5-5-5zm0 0" fill="#6dcc6d"/><path d="m289.398438 22.199219c0-.398438-.199219-.597657-.199219-1-.199219-.199219-.199219-.597657-.398438-.800781-.199219-.199219-.402343-.597657-.601562-.796876-2-1.800781-5.199219-1.800781-7 0-.199219.199219-.398438.398438-.597657.796876-.402343.601562-.601562 1.203124-.800781 1.800781-.199219.601562-.199219 1.402343 0 2 0 .402343.199219.601562.199219 1 .199219.402343.199219.601562.398438.800781.203124.199219.402343.601562.601562.800781 2 2 5.199219 2 7 0 .199219-.199219.398438-.402343.601562-.800781.199219-.199219.398438-.601562.398438-.800781.199219-.199219.199219-.597657.199219-1 .402343-.597657.402343-1.398438.199219-2zm0 0" fill="#55acd5"/><path d="m121.398438 470.800781c0-.402343-.199219-.601562-.199219-1-.199219-.199219-.199219-.601562-.398438-.800781s-.402343-.601562-.601562-.800781c-2-1.800781-5.199219-1.800781-7 .199219-.199219.203124-.398438.402343-.597657.800781-.402343.601562-.601562 1.199219-.800781 1.800781s-.199219 1.398438 0 2c0 .398438.199219.601562.199219 1 .199219.398438.199219.601562.398438.800781.203124.199219.402343.597657.601562.800781 2 2 5.199219 2 7 0 .199219-.203124.398438-.402343.601562-.800781.199219-.199219.398438-.601562.398438-.800781.199219-.199219.199219-.601562.199219-1 .402343-.800781.402343-1.398438.199219-2.199219zm0 0" fill="#ea4647"/><path d="m194.800781 454.800781c-8-1.601562-14.199219-7.800781-15.800781-15.800781 0-.199219-.199219-.398438-.398438-.199219-.203124 0-.203124.199219-.203124.199219-1.597657 8-7.796876 14.199219-15.796876 15.800781-.203124 0-.402343.199219-.203124.398438 0 .199219.203124.199219.203124.199219 8 1.601562 14.199219 7.800781 15.796876 15.800781 0 .199219.203124.402343.402343.199219.199219 0 .199219-.199219.199219-.199219 1.601562-8 7.800781-14.199219 15.800781-15.800781.199219 0 .398438-.199219.199219-.398438 0 0 0-.199219-.199219-.199219zm0 0" fill="#ffcd29"/><path d="m25.800781 433.800781c-2.800781 0-5-2.199219-5-5v-346.800781c0-2.398438 1.800781-4.398438 4-5l153.398438-28.601562c2.800781-.597657 5.402343 1.203124 5.800781 4v1 346.800781c0 2.402343-1.800781 4.402343-4 5l-153.199219 28.800781c-.402343-.199219-.601562-.199219-1-.199219zm5-347.601562v336.601562l143.199219-26.800781v-336.800781zm148.199219 313.800781"/><path d="m332.398438 433.800781c-2.796876 0-5-2.199219-5-5v-346.800781c0-2.398438 1.800781-4.398438 4-5l154.203124-28.800781c2.796876-.597657 5.398438 1.199219 5.796876 4v1 346.800781c0 2.398438-1.796876 4.398438-4 5l-154.199219 28.800781s-.398438 0-.800781 0zm5-347.601562v336.601562l144.203124-26.800781v-336.800781zm149.203124 313.800781"/><path d="m332.398438 454.398438c-1.597657 0-3.199219-.199219-4.796876-.398438l-148.800781-27.800781-148.601562 27.800781c-7.398438 1.398438-15.199219-.601562-21-5.398438-5.800781-4.800781-9.199219-12-9.199219-19.601562v-347c0-12.398438 8.800781-22.800781 20.800781-25.199219l153.199219-28.800781c3.199219-.601562 6.398438-.601562 9.398438 0l148.800781 27.800781 149.402343-27.800781c7.398438-1.398438 15.199219.601562 21 5.398438 5.796876 4.800781 9.199219 12 9.199219 19.601562v346.800781c0 12.398438-8.800781 23-21 25.199219l-154.199219 28.800781c-1 .398438-2.601562.597657-4.203124.597657zm-153.398438-38.398438h1l149.601562 28c1.796876.398438 3.796876.398438 5.796876 0l154.203124-28.800781c7.398438-1.398438 12.796876-7.800781 12.796876-15.398438v-346.601562c0-4.597657-2-9-5.597657-12-3.601562-3-8.199219-4.199219-12.800781-3.398438l-150.398438 28c-.601562.199219-1.203124.199219-1.800781 0l-149.601562-28c-2-.402343-3.800781-.402343-5.800781 0l-153.398438 28.800781c-7.398438 1.398438-12.800781 7.796876-12.800781 15.398438v346.800781c0 4.597657 2 9 5.601562 12 3.597657 3 8.199219 4.199219 12.800781 3.398438l149.398438-28c.398438-.199219.800781-.199219 1-.199219zm0 0"/><path d="m332.398438 454.398438c-1.597657 0-3.199219-.199219-4.597657-.398438l-149.601562-28c-2.398438-.398438-4-2.601562-4-5v-388.398438c0-2.800781 2.199219-5 5-5 1.601562 0 3.199219.199219 4.800781.398438l149.601562 28c2.398438.398438 4 2.601562 4 5v388.398438c-.203124 2.800781-2.402343 5-5.203124 5zm-148.398438-37.597657 143.398438 26.800781v-378.402343l-143.398438-26.800781zm0 0"/><path d="m332.398438 433.800781c-.398438 0-.597657 0-1 0l-153.199219-28.800781c-2.398438-.398438-4-2.601562-4-5v-346.800781c0-2.800781 2.199219-5 5-5h1l153.199219 28.800781c2.402343.398438 4 2.601562 4 5v346.800781c0 2.800781-2.199219 5-5 5zm-148.398438-38 143.398438 26.800781v-336.402343l-143.398438-27zm0 0"/><path d="m411 371c-32.398438 0-58.398438-9.398438-81.800781-29.601562-1-1-1.800781-2.398438-1.800781-3.796876v-34c0-2.800781 2.203124-5 5-5 1.402343 0 2.800781.597657 3.800781 1.597657 20.402343 22.601562 51.199219 57 148.601562 21.402343 2.597657-1 5.398438.398438 6.398438 3 .199219.597657.402343 1.199219.402343 1.796876v25.203124c0 2.199219-1.402343 4-3.402343 4.796876-28.597657 9.800781-54.597657 14.601562-77.199219 14.601562zm-73.601562-35.601562c21 17.601562 44.402343 25.601562 73.402343 25.601562 20.597657 0 44.398438-4.398438 70.597657-12.800781v-14.597657c-81.199219 28-118.398438 8.199219-144.199219-17.203124v19zm0 0"/><path d="m179 201.601562c-1 0-2-.402343-2.800781-1-8.800781-5.800781-18.597657-10-29-12.203124-39.800781-9.398438-69.800781-36-86.800781-76.597657-4.597657-11.199219-8-22.601562-10.398438-34.402343-.601562-2.796876 1.199219-5.398438 4-5.796876l23.601562-4.402343c2.597657-.597657 5.199219 1.199219 5.796876 4 1.800781 9.800781 4.800781 19.199219 8.601562 28.402343 12.800781 30.199219 34 49 63 56 9 2 17.800781 5 26 9 1.800781.796876 2.800781 2.597657 2.800781 4.597657v27.601562c.199219 2.597657-2 4.800781-4.800781 4.800781zm-118-121.203124c2.199219 9.402343 5 18.601562 8.800781 27.601562 15.597657 37.601562 43.199219 62 79.800781 70.800781 8.597657 2 16.796876 5 24.398438 9v-15.601562c-6.800781-3-14-5.398438-21.199219-7-32.199219-7.597657-55.800781-28.398438-69.800781-61.800781-3.398438-8.199219-6.199219-16.796876-8.199219-25.597657zm0 0"/><path d="m229.800781 414.601562c-.402343 0-.601562 0-1 0l-24.402343-4.601562c-2.796876-.601562-4.597657-3.199219-4-5.800781 0-.398438.203124-1 .402343-1.398438 5.597657-10.800781 10-22 13.199219-33.601562 15-55 14.199219-85.398438 10.800781-101.597657-10.199219-10.601562-16.800781-22.601562-22.601562-33.203124-7.398438-13.199219-13.597657-24.796876-26-33.597657-1.398438-1-2.199219-2.402343-2.199219-4v-27.800781c0-2.800781 2.199219-5 5-5 .800781 0 1.398438.199219 2.199219.398438 23.800781 11.402343 35.800781 27.800781 44.402343 42.402343.796876 1.199219.796876 2.597657.398438 4-2.199219 7.199219-.601562 15.199219 4.398438 21l17.800781 21.199219 1.601562-2c1.597657-2 4.597657-2.398438 6.800781-.800781 8.199219 6 18.796876 10.402343 32 13.199219 18.199219 3.800781 30 17.203124 42.597657 31.601562 1.601562 1.800781 3.199219 3.601562 5 5.601562.800781 1 1.199219 2.199219 1.199219 3.398438v34c0 2.800781-2.199219 5-5 5-1.199219 0-2.398438-.398438-3.199219-1.199219-8.398438-7.402343-16.199219-15.601562-23.398438-24-8.800781-10-17-19.199219-24-20.800781-7-1.398438-14-3.398438-20.800781-6 0 24.199219-4.800781 53.398438-14 87.398438-3.199219 11.601562-7.398438 22.800781-12.601562 33.601562-1 1.398438-2.597657 2.601562-4.597657 2.601562zm-17-13.402343 14.199219 2.601562c4.199219-9.199219 7.601562-18.800781 10.398438-28.402343 10-36.597657 14.601562-67.597657 13.601562-92-.199219-2.796876 2-5 4.800781-5.199219.800781 0 1.597657.199219 2.199219.402343 8.398438 3.796876 17 6.398438 26 8.199219 10.398438 2.199219 19.199219 12.199219 29.601562 24 4.199219 4.800781 9 10.199219 14.199219 15.398438v-20.597657c-1.199219-1.402343-2.402343-2.800781-3.601562-4.203124-11.398438-13-22.199219-25.199219-37.199219-28.398438-11.398438-2.199219-22.199219-6.199219-32-12.199219l-2.601562 3c-1 1.199219-2.398438 1.800781-3.796876 1.800781-1.402343 0-3-.601562-3.800781-1.800781l-21.402343-26c-6.597657-7.800781-9-18-6.796876-28-7.203124-11.800781-16.203124-23.601562-32-32.800781v16.800781c12.796876 9.800781 19.597657 22.199219 26.796876 35.398438 6 10.800781 12.203124 22.199219 22 32 .601562.601562 1.203124 1.402343 1.402343 2.402343 4 17 5.398438 49.398438-10.601562 107.796876-3.398438 10.402343-7 20.402343-11.398438 29.800781zm0 0"/><path d="m77.199219 367c-2.800781 0-5-2.199219-5-5v-14c0-2.800781 2.199219-5 5-5s5 2.199219 5 5v14c0 2.800781-2.199219 5-5 5zm0 0"/><path d="m375.199219 173c-2.800781 0-5-2.199219-5-5v-14c0-2.800781 2.199219-5 5-5s5 2.199219 5 5v14c0 2.800781-2.199219 5-5 5zm0 0"/><path d="m179 342.601562c-2.800781 0-5-2.203124-5-5v-50.601562c0-2.800781 2.199219-5 5-5 .800781 0 1.800781.199219 2.398438.601562 3.601562 1.796876 7.601562 2.597657 11.601562 2.398438 9.601562 0 16.601562 6.601562 18.199219 16.601562 2.199219 14.796876-7.597657 33.398438-30.800781 40.796876-.398438 0-.796876.203124-1.398438.203124zm5-48.601562v36c13-6.398438 18.800781-18.199219 17.398438-27-.398438-3-2.199219-8-8.398438-8-2.800781 0-6-.199219-9-1zm0 0"/><path d="m25.800781 433.800781c-2.800781 0-5-2.199219-5-5v-264c0-2.800781 2.199219-5 5-5 1.597657 0 3.199219.800781 4 2.199219 12 16.800781 26.800781 26.601562 44 29.199219 36.199219 5.402343 32.398438 31.199219 30 48.199219-2.199219 14.800781-2.199219 21.402343 5 24 11.398438 4 17.199219 0 23.800781-4.796876 7.199219-5.203124 16.199219-11.601562 31.199219-2.800781 5.398438 3.199219 7.398438 8.800781 9.398438 14.199219 1.800781 5.199219 3.601562 10 8.402343 12.800781 1.597657.800781 2.597657 2.597657 2.597657 4.398438v50.601562c0 2.199219-1.398438 4.199219-3.597657 4.800781-17.800781 5.597657-27.402343 10.796876-30 16.796876-1.601562 4-.800781 9 3 16.601562 3.796876 7.800781 4.398438 18.199219 1.398438 30.800781-.398438 2-2 3.398438-4 3.800781l-124.398438 23.398438c-.203124-.199219-.402343-.199219-.800781-.199219zm5-255v244l115.199219-21.601562c1.601562-8.800781 1.199219-15.800781-1.199219-20.800781-5.199219-10.398438-6.199219-18.199219-3.402343-25 3.800781-8.597657 13.203124-15 32.601562-21.398438v-44.199219c-6-4.601562-8.398438-11-10.199219-16.402343-1.402343-4-2.800781-7.597657-5-9-9.402343-5.398438-13.402343-2.398438-20.199219 2.402343-7.402343 5.199219-16.601562 11.800781-32.800781 6-15.601562-5.601562-13.402343-21.800781-11.402343-34.800781 3-20.398438 3.402343-33.199219-21.597657-37-16.402343-2.398438-31-10.398438-42-22.199219zm0 0"/><path d="m478 292.199219c-11.398438 0-19.398438-8.398438-26.398438-16.199219-7.203124-7.800781-14-15.199219-24.203124-15.199219-34.398438 0-36.398438-19.199219-37.796876-34.402343-1.203124-11-2-20.597657-12.402343-26.199219-16.597657-8.800781-26-2.597657-39 6l-2.597657 1.601562c-2.402343 1.597657-5.402343.800781-7-1.402343-.601562-.796876-.800781-1.796876-.800781-2.796876v-122c0-2.402343 1.800781-4.402343 4-5l154.199219-28.800781c2.800781-.601562 5.398438 1.199219 5.800781 4v1 232.199219c0 2-1.199219 3.800781-3.199219 4.601562-3.402343 1.796876-7 2.597657-10.601562 2.597657zm-116-106c6.800781.199219 13.601562 2 19.601562 5.402343 15.199219 8 16.597657 22.398438 17.796876 34 1.601562 15.398438 2.601562 25.398438 28 25.398438 14.601562 0 23.601562 9.800781 31.601562 18.199219 8.398438 9.199219 14 14.601562 22.800781 12.601562v-222.601562l-144.199219 26.800781v108.601562c7.199219-4.601562 15-8.402343 24.398438-8.402343zm0 0"/><path d="m297.199219 221.601562c-2.800781 0-5.800781-.203124-8.597657-.601562-17-2.398438-20.800781-17.398438-24.402343-30.800781-4.398438-16.800781-8-27.199219-25-27.199219-34.800781 0-46.597657-15.398438-56-27.601562-2.398438-3.199219-5-6.199219-7.597657-9.199219-1-1-1.402343-2.199219-1.402343-3.597657v-69.402343c0-2.800781 2.199219-5 5-5h1l153.199219 28.800781c2.402343.398438 4 2.601562 4 5v122c0 1.601562-.796876 3.199219-2.199219 4.199219-10.398438 6.800781-22 13.402343-38 13.402343zm-113.199219-101c2.601562 2.796876 4.800781 5.796876 7 8.597657 9.398438 12.199219 18.199219 23.800781 48 23.800781 25.601562 0 30.601562 19.199219 34.601562 34.800781 3.597657 13.597657 6.199219 22 16 23.398438 16.199219 2.199219 27.199219-3.199219 37.597657-9.800781v-115.199219l-143.199219-27zm0 0"/><path d="m179 127.800781c-1.398438 0-2.601562-.601562-3.601562-1.402343-4.597657-4.597657-11-9.199219-24.398438-9.199219-11 0-20-3.398438-26.800781-10.199219-11-11.199219-13.199219-28.800781-13.199219-41.800781 0-2.398438 1.800781-4.398438 4-4.800781l63.199219-12c2.800781-.597657 5.402343 1.203124 5.800781 4v1 69.402343c0 2.597657-2.199219 5-5 5zm-57.800781-58.601562c.402343 10.402343 2.601562 22.800781 10.199219 30.601562 4.800781 4.800781 11.203124 7.199219 19.800781 7.199219 8-.199219 15.800781 1.601562 22.800781 5.398438v-53.199219zm0 0"/><path d="m248.199219 265.800781c-1.398438 0-3-.601562-3.800781-1.800781l-21.398438-26c-11.601562-14-9.601562-34.800781 4.398438-46.398438 14-11.601562 34.800781-9.601562 46.402343 4.398438 10 12.199219 10 29.800781 0 42l-21.402343 26c-1.199219 1.199219-2.796876 1.800781-4.199219 1.800781zm0-71.601562c-12.597657 0-22.800781 10.199219-22.800781 22.800781 0 5.398438 1.800781 10.398438 5.203124 14.601562l17.597657 21.398438 17.601562-21.398438c8-9.800781 6.800781-24.203124-3-32.203124-4.199219-3.398438-9.199219-5.199219-14.601562-5.199219zm0 0"/><path d="m248.199219 233c-8.800781 0-16-7.199219-16-16s7.199219-16 16-16 16 7.199219 16 16-7.199219 16-16 16zm0-22c-3.398438 0-6 2.601562-6 6s2.601562 6 6 6c3.402343 0 6-2.601562 6-6s-2.597657-6-6-6zm0 0"/><path d="m101.800781 352h-47.402343c-2.796876 0-5-2.199219-5-5 0-1 .203124-1.800781.800781-2.601562l8.601562-14-2.402343-1c-2.597657-1-3.796876-4-2.796876-6.597657.199219-.199219.199219-.601562.398438-.800781l19.601562-31.800781c1.398438-2.398438 4.597657-3 6.796876-1.597657.601562.398438 1.203124 1 1.601562 1.597657l19.800781 31.800781c1.398438 2.398438.800781 5.398438-1.601562 6.800781-.199219.199219-.398438.199219-.800781.398438l-2.398438 1 8.601562 14c1.398438 2.402343.796876 5.402343-1.601562 6.800781-.398438.800781-1.398438 1-2.199219 1zm-38.402343-10h29.402343l-7-11.398438c-1.402343-2.402343-.800781-5.402343 1.597657-6.800781.203124-.199219.402343-.199219.800781-.402343l2.402343-1-12.402343-19.796876-12.398438 19.796876 2.398438 1c2.601562 1 3.800781 4 2.800781 6.601562-.199219.199219-.199219.601562-.398438.800781zm0 0"/><path d="m399.800781 158h-47.199219c-2.800781 0-5-2.199219-5-5 0-1 .199219-1.800781.796876-2.601562l8.601562-14-2.398438-1c-2.601562-1-3.800781-4-2.800781-6.597657.199219-.199219.199219-.601562.398438-.800781l19.601562-31.800781c1.398438-2.398438 4.597657-3 6.800781-1.597657.597657.398438 1.199219 1 1.597657 1.597657l19.800781 31.800781c1.398438 2.398438.800781 5.398438-1.601562 6.800781-.199219.199219-.398438.199219-.796876.398438l-2.402343 1 8.601562 14c1.398438 2.402343.800781 5.402343-1.601562 6.800781-.597657.800781-1.597657 1-2.398438 1zm-38.402343-10h29.402343l-7-11.398438c-1.402343-2.402343-.800781-5.402343 1.597657-6.800781.203124-.199219.402343-.199219.800781-.402343l2.402343-1-12.402343-19.796876-12.398438 19.796876 2.398438 1c2.601562 1 3.800781 4 2.800781 6.601562-.199219.199219-.199219.601562-.398438.800781zm0 0"/><path d="m486.601562 169.601562c-.203124 0-.402343 0-.800781 0-24.601562-3.601562-31.199219-19.601562-37-33.800781-5.601562-13.402343-10.199219-25-28.601562-28.800781-22-4.601562-35-19.800781-42-31.800781-1.398438-2.398438-.597657-5.398438 1.800781-6.800781.601562-.199219 1-.597657 1.601562-.597657l104-19.402343c2.796876-.597657 5.398438 1.203124 5.796876 4v1 111.402343c.203124 2.597657-2 4.800781-4.796876 4.800781zm-95.800781-93.402343c7.398438 10.601562 18.597657 18.199219 31.398438 21 23.601562 5 30.199219 20.800781 35.800781 34.800781 5 12 9.199219 22.398438 23.398438 26.601562v-99.402343zm0 0"/></svg>